{
	"asset":{
		"generator":"Khronos glTF Blender I/O v4.3.47",
		"version":"2.0"
	},
	"scene":0,
	"scenes":[
		{
			"name":"Scene",
			"nodes":[
				0
			]
		}
	],
	"nodes":[
		{
			"mesh":0,
			"name":"SI_Prop_ShoppingTrolley_01.001"
		}
	],
	"materials":[
		{
			"doubleSided":true,
			"name":"Material",
			"pbrMetallicRoughness":{
				"baseColorTexture":{
					"index":0
				},
				"metallicFactor":0,
				"roughnessFactor":0.6000000238418579
			}
		}
	],
	"meshes":[
		{
			"name":"Mesh.001",
			"primitives":[
				{
					"attributes":{
						"POSITION":0,
						"NORMAL":1,
						"TEXCOORD_0":2
					},
					"indices":3,
					"material":0
				}
			]
		}
	],
	"textures":[
		{
			"sampler":0,
			"source":0
		}
	],
	"images":[
		{
			"mimeType":"image/png",
			"name":"blk-nx64-1x",
			"uri":"blk-nx64-1x.png"
		}
	],
	"accessors":[
		{
			"bufferView":0,
			"componentType":5126,
			"count":569,
			"max":[
				0.5431098341941833,
				1.5019762516021729,
				0.8959049582481384
			],
			"min":[
				-0.5431098341941833,
				-3.916125024261419e-08,
				-0.8959048986434937
			],
			"type":"VEC3"
		},
		{
			"bufferView":1,
			"componentType":5126,
			"count":569,
			"type":"VEC3"
		},
		{
			"bufferView":2,
			"componentType":5126,
			"count":569,
			"type":"VEC2"
		},
		{
			"bufferView":3,
			"componentType":5123,
			"count":876,
			"type":"SCALAR"
		}
	],
	"bufferViews":[
		{
			"buffer":0,
			"byteLength":6828,
			"byteOffset":0,
			"target":34962
		},
		{
			"buffer":0,
			"byteLength":6828,
			"byteOffset":6828,
			"target":34962
		},
		{
			"buffer":0,
			"byteLength":4552,
			"byteOffset":13656,
			"target":34962
		},
		{
			"buffer":0,
			"byteLength":1752,
			"byteOffset":18208,
			"target":34963
		}
	],
	"samplers":[
		{
			"magFilter":9728,
			"minFilter":9984
		}
	],
	"buffers":[
		{
			"byteLength":19960,
			"uri":"cart.bin"
		}
	]
}
